<svg width="15" height="15" viewBox="0 0 15 15" fill="none" xmlns="http://www.w3.org/2000/svg">
<path d="M7.5 1.875C6.75408 2.62092 6.33502 3.63261 6.33502 4.6875C6.33502 5.74239 6.75408 6.75408 7.5 7.5C8.24592 8.24592 9.25761 8.66498 10.3125 8.66498C11.3674 8.66498 12.3791 8.24592 13.125 7.5C13.125 8.61252 12.7951 9.70006 12.177 10.6251C11.5589 11.5501 10.6804 12.2711 9.65259 12.6968C8.62476 13.1226 7.49376 13.234 6.40262 13.0169C5.31147 12.7999 4.30919 12.2641 3.52252 11.4775C2.73585 10.6908 2.20012 9.68853 1.98308 8.59738C1.76604 7.50624 1.87743 6.37524 2.30318 5.34741C2.72892 4.31957 3.44989 3.44107 4.37492 2.82298C5.29994 2.2049 6.38748 1.875 7.5 1.875Z" stroke="#A3A3A3" stroke-linecap="round" stroke-linejoin="round"/>
</svg>
