<svg width="14" height="14" viewBox="0 0 14 14" fill="none" xmlns="http://www.w3.org/2000/svg">
<g clip-path="url(#clip0_24152_2681)">
<path d="M12.7172 5.83333C12.9837 7.14075 12.7938 8.49999 12.1793 9.68437C11.5649 10.8688 10.5629 11.8067 9.34063 12.3418C8.11833 12.8768 6.74953 12.9767 5.4625 12.6247C4.17548 12.2727 3.04803 11.4901 2.26816 10.4075C1.48829 9.32484 1.10315 8.00755 1.17697 6.6753C1.25078 5.34306 1.77909 4.07638 2.67379 3.08651C3.56849 2.09664 4.7755 1.44341 6.09354 1.23576C7.41157 1.0281 8.76095 1.27858 9.91666 1.94541" stroke="#009354" stroke-width="1.05" stroke-linecap="round" stroke-linejoin="round"/>
<path d="M5.25 6.41671L7 8.16671L12.8333 2.33337" stroke="#009354" stroke-width="1.05" stroke-linecap="round" stroke-linejoin="round"/>
</g>
<defs>
<clipPath id="clip0_24152_2681">
<rect width="14" height="14" fill="white"/>
</clipPath>
</defs>
</svg>
