<svg width="15" height="15" viewBox="0 0 15 15" fill="none" xmlns="http://www.w3.org/2000/svg">
<g clip-path="url(#clip0_24294_2321)">
<path d="M7.5 13.75C10.9518 13.75 13.75 10.9518 13.75 7.5C13.75 4.04822 10.9518 1.25 7.5 1.25C4.04822 1.25 1.25 4.04822 1.25 7.5C1.25 10.9518 4.04822 13.75 7.5 13.75Z" stroke="#A3A3A3" stroke-linecap="round" stroke-linejoin="round"/>
<path d="M5.68125 5.62487C5.82819 5.20716 6.11822 4.85493 6.49997 4.63058C6.88172 4.40622 7.33056 4.3242 7.76699 4.39906C8.20341 4.47392 8.59926 4.70082 8.88442 5.03957C9.16959 5.37832 9.32566 5.80707 9.325 6.24987C9.325 7.49987 7.45 8.12487 7.45 8.12487" stroke="#A3A3A3" stroke-linecap="round" stroke-linejoin="round"/>
<path d="M7.5 10.625H7.50625" stroke="#A3A3A3" stroke-linecap="round" stroke-linejoin="round"/>
</g>
<defs>
<clipPath id="clip0_24294_2321">
<rect width="15" height="15" fill="white"/>
</clipPath>
</defs>
</svg>
