<svg width="20" height="20" viewBox="0 0 20 20" fill="none" xmlns="http://www.w3.org/2000/svg">
<path d="M7.00003 19V13C7.00003 12.4696 7.21074 11.9609 7.58582 11.5858C7.96089 11.2107 8.4696 11 9.00003 11H11C11.5305 11 12.0392 11.2107 12.4142 11.5858C12.7893 11.9609 13 12.4696 13 13V19M3.00003 10H1.00003L10 1L19 10H17V17C17 17.5304 16.7893 18.0391 16.4142 18.4142C16.0392 18.7893 15.5305 19 15 19H5.00003C4.4696 19 3.96089 18.7893 3.58582 18.4142C3.21074 18.0391 3.00003 17.5304 3.00003 17V10Z" stroke="#009354" stroke-width="2" stroke-linecap="round" stroke-linejoin="round"/>
</svg>
