<svg width="15" height="15" viewBox="0 0 15 15" fill="none" xmlns="http://www.w3.org/2000/svg">
<path d="M6.4175 13.125C6.52721 13.315 6.68501 13.4728 6.87503 13.5825C7.06504 13.6922 7.28059 13.7499 7.5 13.7499C7.71941 13.7499 7.93495 13.6922 8.12497 13.5825C8.31499 13.4728 8.47279 13.315 8.5825 13.125" stroke="#A3A3A3" stroke-linecap="round" stroke-linejoin="round"/>
<path d="M13.75 5C13.75 3.5625 13.25 2.3125 12.5 1.25" stroke="#A3A3A3" stroke-linecap="round" stroke-linejoin="round"/>
<path d="M2.03875 9.57875C1.9571 9.66824 1.90322 9.77953 1.88366 9.89907C1.8641 10.0186 1.8797 10.1413 1.92857 10.2521C1.97743 10.363 2.05746 10.4572 2.15891 10.5234C2.26036 10.5896 2.37886 10.6249 2.5 10.625H12.5C12.6211 10.625 12.7397 10.5899 12.8412 10.5238C12.9427 10.4577 13.0228 10.3636 13.0718 10.2528C13.1208 10.142 13.1366 10.0194 13.1172 9.89987C13.0977 9.78031 13.044 9.66896 12.9625 9.57937C12.1313 8.7225 11.25 7.81188 11.25 5C11.25 4.00544 10.8549 3.05161 10.1517 2.34835C9.44839 1.64509 8.49456 1.25 7.5 1.25C6.50544 1.25 5.55161 1.64509 4.84835 2.34835C4.14509 3.05161 3.75 4.00544 3.75 5C3.75 7.81188 2.86813 8.7225 2.03875 9.57875Z" stroke="#A3A3A3" stroke-linecap="round" stroke-linejoin="round"/>
<path d="M2.5 1.25C1.75 2.3125 1.25 3.5625 1.25 5" stroke="#A3A3A3" stroke-linecap="round" stroke-linejoin="round"/>
</svg>
