<svg width="15" height="15" viewBox="0 0 15 15" fill="none" xmlns="http://www.w3.org/2000/svg">
<path d="M1.875 7.5C1.875 8.61252 2.2049 9.70006 2.82298 10.6251C3.44107 11.5501 4.31957 12.2711 5.34741 12.6968C6.37524 13.1226 7.50624 13.234 8.59738 13.0169C9.68853 12.7999 10.6908 12.2641 11.4775 11.4775C12.2641 10.6908 12.7999 9.68853 13.0169 8.59738C13.234 7.50624 13.1226 6.37524 12.6968 5.34741C12.2711 4.31957 11.5501 3.44107 10.6251 2.82298C9.70006 2.2049 8.61252 1.875 7.5 1.875C5.92747 1.88092 4.41811 2.49451 3.2875 3.5875L1.875 5" stroke="#A3A3A3" stroke-linecap="round" stroke-linejoin="round"/>
<path d="M1.875 1.875V5H5" stroke="#A3A3A3" stroke-linecap="round" stroke-linejoin="round"/>
<path d="M7.5 4.375V7.5L10 8.75" stroke="#A3A3A3" stroke-linecap="round" stroke-linejoin="round"/>
</svg>
