<svg width="15" height="15" viewBox="0 0 15 15" fill="none" xmlns="http://www.w3.org/2000/svg">
<path d="M1.61625 10.8842C1.38181 11.1186 1.25007 11.4365 1.25 11.768V13.1255C1.25 13.2912 1.31585 13.4502 1.43306 13.5674C1.55027 13.6846 1.70924 13.7505 1.875 13.7505H3.75C3.91576 13.7505 4.07473 13.6846 4.19194 13.5674C4.30915 13.4502 4.375 13.2912 4.375 13.1255V12.5005C4.375 12.3347 4.44085 12.1757 4.55806 12.0585C4.67527 11.9413 4.83424 11.8755 5 11.8755H5.625C5.79076 11.8755 5.94973 11.8096 6.06694 11.6924C6.18415 11.5752 6.25 11.4162 6.25 11.2505V10.6255C6.25 10.4597 6.31585 10.3007 6.43306 10.1835C6.55027 10.0663 6.70924 10.0005 6.875 10.0005H6.9825C7.31399 10.0004 7.63188 9.86865 7.86625 9.63422L8.375 9.12547C9.24365 9.42806 10.1893 9.4269 11.0572 9.12219C11.9251 8.81747 12.6639 8.22724 13.1527 7.44804C13.6416 6.66885 13.8515 5.74682 13.7482 4.8328C13.6449 3.91878 13.2344 3.06687 12.584 2.41645C11.9336 1.76602 11.0817 1.35558 10.1677 1.25227C9.25364 1.14896 8.33162 1.3589 7.55242 1.84774C6.77323 2.33658 6.18299 3.07539 5.87828 3.94329C5.57357 4.8112 5.57241 5.75682 5.875 6.62547L1.61625 10.8842Z" stroke="#A3A3A3" stroke-linecap="round" stroke-linejoin="round"/>
<path d="M10.3125 5C10.4851 5 10.625 4.86009 10.625 4.6875C10.625 4.51491 10.4851 4.375 10.3125 4.375C10.1399 4.375 10 4.51491 10 4.6875C10 4.86009 10.1399 5 10.3125 5Z" fill="#A3A3A3" stroke="#A3A3A3" stroke-linecap="round" stroke-linejoin="round"/>
</svg>
