<svg width="15" height="15" viewBox="0 0 15 15" fill="none" xmlns="http://www.w3.org/2000/svg">
<path d="M7.5 6.25C7.16848 6.25 6.85054 6.3817 6.61612 6.61612C6.3817 6.85054 6.25 7.16848 6.25 7.5C6.25 8.1375 6.1875 9.06875 6.0875 10" stroke="#A3A3A3" stroke-linecap="round" stroke-linejoin="round"/>
<path d="M8.75 8.2002C8.75 9.6877 8.75 12.1877 8.125 13.7502" stroke="#A3A3A3" stroke-linecap="round" stroke-linejoin="round"/>
<path d="M10.8063 13.1375C10.8813 12.7625 11.075 11.7 11.1188 11.25" stroke="#A3A3A3" stroke-linecap="round" stroke-linejoin="round"/>
<path d="M1.25 7.5C1.25 6.18823 1.66273 4.90972 2.42974 3.84556C3.19674 2.7814 4.27913 1.98555 5.52358 1.57073C6.76803 1.15591 8.11145 1.14316 9.36355 1.53429C10.6156 1.92542 11.7129 2.70059 12.5 3.75" stroke="#A3A3A3" stroke-linecap="round" stroke-linejoin="round"/>
<path d="M1.25 10H1.25625" stroke="#A3A3A3" stroke-linecap="round" stroke-linejoin="round"/>
<path d="M13.625 10C13.75 8.75 13.7069 6.65375 13.625 6.25" stroke="#A3A3A3" stroke-linecap="round" stroke-linejoin="round"/>
<path d="M3.125 12.1875C3.4375 11.25 3.75 9.375 3.75 7.5C3.74937 7.07429 3.82123 6.65158 3.9625 6.25" stroke="#A3A3A3" stroke-linecap="round" stroke-linejoin="round"/>
<path d="M5.40625 13.75C5.5375 13.3375 5.6875 12.925 5.7625 12.5" stroke="#A3A3A3" stroke-linecap="round" stroke-linejoin="round"/>
<path d="M5.625 4.25045C6.19525 3.92122 6.84213 3.74794 7.5006 3.74805C8.15907 3.74815 8.8059 3.92164 9.37604 4.25105C9.94619 4.58047 10.4195 5.0542 10.7485 5.62461C11.0775 6.19502 11.2504 6.84199 11.25 7.50045V8.75045" stroke="#A3A3A3" stroke-linecap="round" stroke-linejoin="round"/>
</svg>
